<?xml version="1.0" standalone="no"?>
<!DOCTYPE svg PUBLIC "-//W3C//DTD SVG 20010904//EN"
 "http://www.w3.org/TR/2001/REC-SVG-20010904/DTD/svg10.dtd">
<svg version="1.0" xmlns="http://www.w3.org/2000/svg"
 width="208.000000pt" height="214.000000pt" viewBox="0 0 208.000000 214.000000"
 preserveAspectRatio="xMidYMid meet">

<g transform="translate(0.000000,214.000000) scale(0.100000,-0.100000)"
fill="#000000" stroke="none">
<path d="M1460 1765 l-82 -97 -52 9 c-28 4 -103 8 -166 7 -132 0 -217 -21
-335 -82 -102 -53 -221 -174 -268 -272 -95 -202 -73 -407 66 -588 48 -64 133
-133 153 -125 25 9 14 37 -27 68 -54 40 -134 147 -160 215 -77 198 -31 401
124 554 122 122 281 186 456 186 113 0 164 -9 157 -26 -3 -8 -53 -70 -112
-138 l-106 -125 -52 0 c-68 1 -100 -16 -159 -85 -62 -72 -79 -113 -67 -156 31
-110 167 -129 254 -36 95 102 114 151 82 215 -15 27 -14 28 205 286 121 142
218 264 216 269 -2 6 -13 12 -24 14 -15 2 -42 -22 -103 -93z"/>
<path d="M1517 1575 c-4 -9 11 -26 41 -49 162 -119 253 -297 238 -471 -5 -71
-34 -171 -61 -212 -20 -30 -19 -51 10 -226 14 -83 25 -158 23 -168 -3 -15 -27
-7 -178 53 l-175 70 -70 -16 c-38 -8 -93 -18 -121 -21 -50 -6 -207 10 -231 24
-10 5 7 32 58 91 l71 85 58 2 c32 0 67 6 77 12 19 9 208 226 226 257 5 9 2 16
-9 21 -17 6 -33 -8 -115 -104 l-35 -42 -17 29 -17 29 55 65 c53 62 61 86 31
86 -8 0 -39 -29 -69 -63 -50 -57 -59 -63 -86 -59 -17 2 -31 7 -31 11 0 4 28
40 61 80 45 51 59 75 51 83 -6 6 -17 8 -25 5 -25 -9 -217 -247 -218 -270 -2
-38 2 -61 16 -82 12 -19 -3 -39 -186 -255 -110 -129 -198 -242 -196 -250 7
-39 39 -15 141 105 59 69 110 125 114 125 4 -1 34 -7 67 -15 79 -19 236 -19
327 1 l73 15 200 -80 c158 -64 202 -78 211 -69 9 10 4 59 -22 218 l-34 205 25
52 c77 159 73 343 -11 503 -38 71 -87 128 -170 196 -56 45 -88 55 -97 29z
m-270 -660 c12 -8 24 -28 28 -44 18 -84 -101 -133 -155 -64 -27 34 -25 69 5
98 28 29 88 34 122 10z"/>
</g>
</svg>
